<?xml version="1.0" encoding="UTF-8" standalone="no"?>
<!-- Created with Inkscape (http://www.inkscape.org/) -->

<svg
   xmlns:dc="http://purl.org/dc/elements/1.1/"
   xmlns:cc="http://creativecommons.org/ns#"
   xmlns:rdf="http://www.w3.org/1999/02/22-rdf-syntax-ns#"
   xmlns:svg="http://www.w3.org/2000/svg"
   xmlns="http://www.w3.org/2000/svg"
   xmlns:sodipodi="http://sodipodi.sourceforge.net/DTD/sodipodi-0.dtd"
   xmlns:inkscape="http://www.inkscape.org/namespaces/inkscape"
   width="210mm"
   height="210mm"
   viewBox="0 0 210 210"
   version="1.1"
   id="svg8"
   inkscape:version="0.92.2 (5c3e80d, 2017-08-06)"
   sodipodi:docname="icon.svg"
   inkscape:export-filename="/Users/igor_zinin/bitmap.png"
   inkscape:export-xdpi="46.040001"
   inkscape:export-ydpi="46.040001">
  <defs
     id="defs2" />
  <sodipodi:namedview
     id="base"
     pagecolor="#ffcece"
     bordercolor="#666666"
     borderopacity="1.0"
     inkscape:pageopacity="0"
     inkscape:pageshadow="2"
     inkscape:zoom="0.63962415"
     inkscape:cx="350.62779"
     inkscape:cy="386.38005"
     inkscape:document-units="mm"
     inkscape:current-layer="layer1"
     showgrid="false"
     inkscape:window-width="1140"
     inkscape:window-height="755"
     inkscape:window-x="85"
     inkscape:window-y="23"
     inkscape:window-maximized="0" />
  <metadata
     id="metadata5">
    <rdf:RDF>
      <cc:Work
         rdf:about="">
        <dc:format>image/svg+xml</dc:format>
        <dc:type
           rdf:resource="http://purl.org/dc/dcmitype/StillImage" />
        <dc:title></dc:title>
      </cc:Work>
    </rdf:RDF>
  </metadata>
  <g
     inkscape:label="Layer 1"
     inkscape:groupmode="layer"
     id="layer1"
     transform="translate(0,-87)">
    <ellipse
       style="opacity:1;fill:#cccccc;fill-opacity:1;fill-rule:nonzero;stroke:#ffffff;stroke-width:1;stroke-miterlimit:4;stroke-dasharray:none;stroke-opacity:0.94117647"
       id="path815"
       cx="109.66095"
       cy="188.85184"
       rx="76.753471"
       ry="75.712791" />
    <path
       style="opacity:1;fill:#800000;fill-opacity:1;fill-rule:nonzero;stroke:#ffffff;stroke-width:0;stroke-miterlimit:4;stroke-dasharray:none;stroke-opacity:1"
       id="path999"
       d="m 77.269547,189.22157 c 0.0733,-0.99175 0.40956,-1.85194 0.9328,-2.68826 2.15281,-2.8209 5.14064,-5.05982 7.74545,-7.37169 0.92997,-0.70492 1.95862,-1.23557 3.07508,-1.56469 1.3953,-0.40389 2.82759,-0.29646 4.25488,-0.20112 1.66577,0.14886 3.10471,0.95296 4.42653,1.92222 1.63061,1.20721 2.628673,2.91894 3.408563,4.75213 0.94411,2.23084 1.04698,4.6385 1.10375,7.0243 0.0806,2.539 0.0817,5.07561 -0.0539,7.6124 -0.18027,1.94316 -0.53874,3.9301 -1.56936,5.62457 -0.20742,0.34102 -0.46239,0.65074 -0.693593,0.97611 -2.16563,2.36985 -4.70093,4.50397 -7.19219,6.4676 -0.41901,0.33027 -0.94538,0.49507 -1.4242,0.7304 -1.86497,0.91654 -1.23864,0.63271 -3.29744,1.26512 -2.40582,0.67157 -4.88665,0.76429 -7.35815,0.50285 -0.55451,-0.0587 -1.11645,-0.0903 -1.65772,-0.2243 -0.63027,-0.15605 -1.22618,-0.42767 -1.83926,-0.64151 -3.2421,-1.68665 -6.21511,-3.97895 -8.76179,-6.60336 -1.47527,-1.52031 -2.458978,-2.86763 -3.754478,-4.52588 -2.039624,-2.82198 -3.653535,-5.95729 -4.688839,-9.28781 -0.61455,-1.97697 -0.864805,-3.49515 -1.271026,-5.51966 -0.700645,-4.18604 -0.806027,-8.46733 0.08986,-12.62539 0.508272,-2.11347 1.424006,-3.62608 2.955246,-5.12905 2.475975,-1.68195 4.390025,-4.15554 6.801427,-5.95721 0.86045,-0.64288 1.79919,-1.19843 2.71108,-1.76352 1.72384,-1.05263 3.53313,-1.90604 5.44598,-2.54735 1.95037,-0.51988 3.97676,-0.7989 5.98513,-0.99849 1.35669,-0.0886 2.73105,-0.27017 4.09399,-0.20359 0.10695,0.005 1.89385,0.19452 2.02826,0.20864 1.63703,0.19114 3.19164,0.7462 4.71782,1.34125 1.51736,0.62878 3.06811,1.17437 4.56026,1.86148 2.560823,1.40841 4.395693,3.77362 6.253753,5.96792 2.32971,2.61938 4.0093,5.70358 5.1138,9.0227 0.28003,0.8415 0.5022,1.70116 0.75329,2.55174 0.84426,3.04151 1.80461,6.06763 2.23581,9.20538 0.19676,1.43203 0.28431,3.06018 0.38292,4.50418 0.11303,5.52434 -0.86261,10.97729 -2.06619,16.3443 -0.75751,2.95499 -1.60327,5.99372 -3.25239,8.60048 -1.07323,1.69647 -1.6994,2.22645 -3.0714,3.69639 -2.69374,2.36937 -4.927443,4.82198 -7.989503,6.5559 -2.15641,1.22109 -4.91268,2.36063 -7.3004,3.0357 -0.78899,0.22309 -1.59993,0.35963 -2.3999,0.53944 -3.51719,0.52931 -7.09839,0.63859 -10.62281,0.10819 -2.16477,-0.32579 -3.91744,-0.78383 -6.04048,-1.28429 -5.776982,-1.35334 -10.43595,-4.99745 -14.823107,-8.80346 -2.847102,-2.92864 -5.496649,-6.07888 -7.747425,-9.49376 -1.045853,-1.58676 -2.30833,-3.8327 -3.261229,-5.48628 -2.064822,-3.91115 -3.984696,-7.95378 -5.254232,-12.20447 -0.795146,-2.66233 -1.081333,-4.48048 -1.608243,-7.19023 -0.629975,-4.19293 -0.667873,-8.60153 0.876674,-12.62625 1.054888,-2.74878 2.088965,-4.0451 3.695455,-6.52066 2.81465,-3.89366 6.233853,-7.24296 9.825872,-10.40913 2.501402,-2.20484 5.017572,-4.39401 7.581856,-6.52539 2.754729,-2.28968 7.061787,-5.47207 9.914139,-7.61634 7.86963,-5.7315 15.74055,-11.46542 23.17234,-17.76063 -0.54452,0.4687 -1.89036,2.07711 -1.63355,1.40612 0.29624,-0.774 1.1939,-1.15047 1.76541,-1.75063 1.79841,-1.88861 3.04756,-3.59077 4.21216,-5.90609 1.05036,-2.30136 1.24012,-4.21576 0.84018,-6.67735 -0.40788,-2.02536 -1.32333,-3.60428 -2.63158,-5.16535 -1.29042,-1.47163 -2.58751,-2.16576 -4.49773,-2.50089 -2.08261,-0.25129 -3.98839,0.40506 -5.81853,1.32962 -0.35221,0.2215 -0.71293,0.43002 -1.05666,0.66449 -0.36446,0.24862 -0.71827,0.51292 -1.0665,0.7838 -0.36523,0.2841 -1.4164,1.19088 -1.07314,0.88058 5.62481,-5.0848 3.43246,-3.17337 2.17807,-1.66641 -0.34531,0.41483 -0.65916,0.85488 -0.98874,1.28232 -2.17089,3.0284 -3.74749,6.46076 -4.92797,9.98672 -0.45639,1.3632 -0.8309,2.75248 -1.24635,4.12871 -0.40624,1.88335 -0.89798,3.75026 -1.21871,5.65003 -2.59195,15.35254 -1.76469,30.96766 -1.04008,46.43533 0.44218,12.68629 2.19516,25.29424 2.52756,37.98572 0.13936,5.32114 -0.0422,11.40303 -0.15084,16.74397 -0.27881,8.02966 -0.90242,16.0561 -2.27656,23.97836 -0.64074,3.694 -1.11744,5.60959 -1.93207,9.22795 -1.02332,3.94064 -1.91467,7.92434 -3.1317,11.81284 -0.49041,1.56686 -1.299,3.95814 -2.14605,5.4356 -0.39079,0.68165 -0.919732,1.27419 -1.379602,1.91129 -1.91957,1.61062 -3.660873,3.46151 -5.758716,4.83189 -0.585999,0.38279 -1.385943,0.37981 -2.079912,0.28855 -3.759328,-0.49435 -5.673521,-4.84744 -7.057198,-7.72731 -0.906356,-1.88641 -1.650271,-3.84665 -2.475406,-5.76996 0,0 2.973037,-2.50131 2.973037,-2.50131 v 0 c 2.008624,3.85157 4.099237,9.0458 8.179823,11.29806 0.649409,0.35844 1.407183,0.55036 2.148348,0.58004 0.640015,0.0256 2.011134,-1.04494 1.875354,-0.41897 -0.23722,1.0937 -1.541629,1.6227 -2.312443,2.43407 0.518475,-0.63377 1.109414,-1.21461 1.555431,-1.90129 1.007972,-1.55187 1.916642,-3.90182 2.515742,-5.5981 1.386582,-3.92595 2.384882,-7.97793 3.439872,-12.00024 0.88599,-3.59682 1.4462,-5.70133 2.17398,-9.37018 1.61141,-8.12338 2.5559,-16.37387 3.21372,-24.62322 0.36294,-7.70703 0.54372,-9.05108 0.41875,-16.92139 -0.20277,-12.76962 -1.41831,-25.49787 -2.2016,-38.23695 -0.47881,-9.74686 -0.89587,-19.47108 -0.88378,-29.23251 0.006,-4.78908 0.0545,-11.31783 0.48533,-16.2034 0.15789,-1.79038 0.48953,-3.56115 0.7343,-5.34173 0.30579,-1.31098 0.57155,-2.63194 0.91736,-3.93294 0.91182,-3.43053 2.22027,-6.84426 4.2893,-9.74853 0.38558,-0.53129 1.4253,-2.01904 1.91978,-2.48689 2.71251,-2.56637 5.44998,-5.27416 8.73059,-7.13047 1.97035,-0.90198 3.99605,-1.51745 6.1859,-1.15458 1.87534,0.43708 3.53292,1.28215 4.76101,2.81064 1.326413,1.60069 2.351913,3.37848 2.811403,5.42953 0.44873,2.64908 0.33658,4.59333 -0.78456,7.09439 -0.23223,0.47348 -0.4372,0.96133 -0.69668,1.42044 -2.760423,4.88395 -7.605293,8.29263 -11.589583,12.02577 -7.22044,5.93728 -14.88579,11.28438 -22.41746,16.814 -7.720382,5.83307 -2.420252,1.76262 -9.995221,7.74897 -0.493975,0.39038 -1.022639,0.73826 -1.494301,1.15534 -3.429578,3.03275 -6.673898,6.26924 -9.378783,9.97799 -1.593271,2.44156 -2.500146,3.54148 -3.55236,6.23765 -1.557884,3.99187 -1.656746,8.35923 -1.168493,12.55666 0.210889,1.18237 0.368371,2.37552 0.632651,3.54711 1.239463,5.49469 3.639185,10.64865 6.27869,15.59207 1.300075,2.35082 1.707376,3.20218 3.214514,5.45538 2.252682,3.36781 4.876529,6.48789 7.806309,9.28506 1.640553,1.50226 2.402303,2.27187 4.207752,3.62205 3.11582,2.33014 6.584312,4.07124 10.348722,5.08051 2.5262,0.62422 3.37172,0.91658 5.9969,1.21712 3.53902,0.40514 7.14189,0.20451 10.64642,-0.37769 0.78328,-0.1879 1.57587,-0.34055 2.34982,-0.56379 2.49037,-0.71841 4.96171,-1.77465 7.18077,-3.11559 0.717863,-0.43379 2.073993,-2.26837 2.070623,-1.42964 -0.004,0.94875 -1.3818,1.30045 -2.072703,1.95068 1.352793,-1.38869 1.999713,-1.92228 3.074483,-3.52917 1.73496,-2.59395 2.6358,-5.65012 3.51585,-8.60689 1.29204,-5.26586 2.2413,-10.63866 1.9818,-16.08639 -0.0329,-0.7313 -0.0417,-1.46409 -0.0988,-2.1939 -0.30595,-3.91339 -1.21163,-7.75692 -2.29985,-11.51769 -1.43927,-4.24123 -2.87103,-7.84564 -5.95905,-11.19787 -1.884873,-2.07753 -3.779063,-4.29133 -6.349813,-5.53199 -1.51424,-0.63983 -3.08494,-1.14011 -4.59755,-1.78738 -1.46873,-0.57103 -2.96923,-1.08867 -4.53902,-1.29464 -2.00478,-0.22142 -4.01475,-0.18302 -6.01754,0.0705 -1.99193,0.22706 -4.00526,0.4968 -5.91524,1.12485 -1.85642,0.66518 -3.61835,1.53203 -5.29174,2.57904 -0.906672,0.58212 -1.815472,1.15909 -2.663712,1.82591 -1.646646,1.29444 -4.965061,4.46619 2.057862,-1.91765 -0.453672,0.40265 -0.923532,0.7926 -1.322462,1.25303 -0.92846,1.07158 -1.54309,2.38957 -2.00089,3.7174 -1.193432,4.16117 -1.380887,8.48898 -0.677276,12.76647 0.460487,2.34466 0.543636,3.13417 1.275816,5.40828 1.05419,3.27419 2.634192,6.35627 4.522142,9.22293 0.5614,0.75514 1.08677,1.53844 1.68418,2.26543 2.39693,2.91684 5.3639,5.60976 8.70541,7.40417 0.69581,0.37365 1.4436,0.64112 2.1654,0.96169 0.61961,0.16472 1.23145,0.36205 1.85882,0.49419 2.90518,0.61188 5.92432,0.41868 8.76458,-0.39564 1.62053,-0.5902 1.79811,-0.57948 3.26912,-1.3968 0.49869,-0.27709 1.83061,-1.32775 1.4588,-0.89506 -0.98394,1.14502 -2.23082,2.03497 -3.32875,3.07118 -0.61135,0.57698 2.54181,-2.21574 1.84162,-1.72286 0.2418,-0.29518 0.50833,-0.57171 0.72541,-0.88552 1.10704,-1.60043 1.56228,-3.55088 1.76843,-5.4525 0.18054,-2.5325 0.12729,-5.06522 0.11904,-7.60246 -0.031,-2.2989 -0.22688,-4.59166 -1.09007,-6.74828 -0.72317,-1.7563 -1.61976,-3.36293 -3.21874,-4.47402 -1.27194,-0.88125 -2.64851,-1.54731 -4.21771,-1.65757 -1.42247,-0.0967 -2.82888,-0.0538 -4.17812,0.46709 -1.01979,0.37289 -1.96876,0.90262 -2.79624,1.6123 7.87048,-7.04326 2.72392,-2.69964 1.2026,-0.77105 -0.52084,0.67368 -1.02059,1.43626 -0.95299,2.32811 0,0 -5.06861,3.8011 -5.06861,3.8011 z"
       inkscape:connector-curvature="0" />
    <path
       style="opacity:1;fill:#800000;fill-opacity:1;fill-rule:nonzero;stroke:#ffffff;stroke-width:0;stroke-miterlimit:4;stroke-dasharray:none;stroke-opacity:1"
       id="path1139"
       d="m 90.05448,155.01801 c 1.032832,-1.39495 2.611135,-2.41596 4.038758,-3.3735 2.590565,-1.73756 3.767127,-2.36394 6.534172,-3.98203 5.57878,-3.01925 11.11494,-6.20537 16.93039,-8.78745 5.47606,-2.43138 11.03574,-4.49423 16.77687,-6.26297 3.52214,-1.08509 7.1048,-1.97243 10.65719,-2.95865 14.038,-3.5295 28.30697,-6.03254 42.62655,-8.1612 0,0 -2.1483,1.58932 -2.1483,1.58932 v 0 c -14.20879,1.97073 -28.36111,4.3949 -42.26212,7.92842 -3.57466,1.00915 -7.18127,1.9157 -10.72398,3.0274 -5.97396,1.87466 -11.33021,3.92318 -16.99817,6.47461 -4.16346,1.87418 -8.11934,4.1505 -12.22151,6.14231 -3.579641,2.08868 -7.455111,4.09709 -10.345701,7.09137 0,0 -2.864149,1.27237 -2.864149,1.27237 z"
       inkscape:connector-curvature="0" />
    <path
       style="opacity:1;fill:#800000;fill-opacity:1;fill-rule:nonzero;stroke:#ffffff;stroke-width:0;stroke-miterlimit:4;stroke-dasharray:none;stroke-opacity:1"
       id="path1183"
       d="m 109.46444,166.08785 c 1.06356,-0.83207 2.31499,-1.40825 3.5381,-1.96062 5.38869,-2.43359 3.71264,-1.71567 8.87497,-3.63224 15.07644,-5.68136 30.86084,-9.01034 46.57018,-12.38469 7.84931,-1.63442 15.69793,-3.27237 23.54039,-4.93945 0.52637,-0.11245 0.87809,-0.18715 1.3752,-0.29454 0.0847,-0.0183 0.16939,-0.0367 0.25403,-0.0553 0.0372,-0.008 0.10051,-0.0637 0.11091,-0.0271 0.0331,0.11646 0.0588,0.23489 0.0882,0.35234 -0.06,-0.0824 -0.13822,-0.19749 -0.0436,-0.2558 0.0108,-0.002 0.0189,-0.01 0.0281,-0.0143 0,0 -2.09985,1.32226 -2.09985,1.32226 v 0 c -0.0139,-0.003 -0.0276,-0.006 -0.0416,-0.009 -0.14397,-0.0433 -0.21752,-0.19424 -0.22008,-0.34191 0.0673,0.096 0.13631,0.19085 0.20177,0.28813 0.0192,0.0285 -0.0678,0.0109 -0.1015,0.0175 -0.081,0.0159 -0.1619,0.0319 -0.24282,0.048 -0.47837,0.0953 -0.82981,0.16639 -1.33355,0.26774 -7.74619,1.56497 -15.4878,3.15252 -23.22914,4.74133 -15.77875,3.35575 -31.61374,6.75266 -46.72576,12.52411 -1.40017,0.53035 -2.79527,1.0743 -4.20052,1.59103 -0.16578,0.061 -0.3482,0.0721 -0.51069,0.14134 -1.19854,0.5106 -2.43357,1.09721 -3.4743,1.89125 0,0 -2.35841,0.72946 -2.35841,0.72946 z"
       inkscape:connector-curvature="0" />
    <path
       style="opacity:1;fill:#800000;fill-opacity:1;fill-rule:nonzero;stroke:#ffffff;stroke-width:0;stroke-miterlimit:4;stroke-dasharray:none;stroke-opacity:1"
       id="path1185"
       d="m 118.54288,177.93113 c 5.61396,-1.42294 11.24224,-2.77805 16.9029,-4.00246 9.53321,-2.03159 19.20932,-3.09585 28.91994,-3.77013 7.6659,-0.3903 15.34025,-0.77248 23.01802,-0.65604 1.50709,0.0469 3.01889,0.07 4.5177,0.2478 0.8613,-0.0126 1.7071,0.0936 2.55484,0.23601 0.25792,0.0443 0.51417,0.0971 0.76978,0.1529 0,0 -2.13515,1.24618 -2.13515,1.24618 v 0 c -0.24966,-0.0543 -0.49987,-0.10626 -0.75187,-0.14892 -0.8506,-0.13861 -1.70019,-0.19796 -2.56059,-0.22074 -1.46245,-0.18708 -2.93936,-0.22372 -4.41092,-0.28285 -7.62928,-0.16888 -15.25916,0.18912 -22.87635,0.59263 -9.70907,0.69616 -19.38937,1.76102 -28.91958,3.8077 -5.72747,1.25701 -11.42133,2.64823 -17.09545,4.12743 0,0 2.06673,-1.32951 2.06673,-1.32951 z"
       inkscape:connector-curvature="0" />
    <path
       style="opacity:1;fill:#800000;fill-opacity:1;fill-rule:nonzero;stroke:#ffffff;stroke-width:0;stroke-miterlimit:4;stroke-dasharray:none;stroke-opacity:1"
       id="path1187"
       d="m 121.24656,199.48989 c 2.09689,-0.44739 4.21751,-0.7901 6.32834,-1.16949 0.82907,-0.11005 1.65541,-0.24313 2.48722,-0.33016 2.77899,-0.29075 6.45916,-0.53331 9.1747,-0.68498 3.05632,-0.17071 8.74054,-0.43157 11.79299,-0.46038 2.22222,-0.021 4.44447,0.0397 6.6667,0.0595 10.4199,0.18341 20.79165,1.21483 31.06898,2.89865 2.73135,0.47838 5.49229,0.91134 8.09828,1.88915 0.23884,0.0906 0.46976,0.19742 0.69092,0.32454 0,0 -2.17284,1.18381 -2.17284,1.18381 v 0 c -0.21176,-0.11437 -0.42981,-0.21589 -0.65422,-0.30349 -2.55532,-0.97806 -5.26855,-1.4202 -7.94736,-1.92247 -10.20949,-1.75867 -20.52988,-2.79318 -30.89481,-2.96207 -2.23226,-0.0106 -4.46466,-0.0585 -6.69678,-0.0317 -3.38301,0.0406 -8.44426,0.28338 -11.82346,0.48884 -3.06301,0.18622 -6.22987,0.41892 -9.28651,0.77383 -0.84331,0.0979 -1.6806,0.24221 -2.5209,0.36331 -2.13226,0.39054 -4.274,0.74247 -6.39003,1.21406 0,0 2.07878,-1.33101 2.07878,-1.33101 z"
       inkscape:connector-curvature="0" />
    <path
       style="opacity:1;fill:#800000;fill-opacity:1;fill-rule:nonzero;stroke:#ffffff;stroke-width:0;stroke-miterlimit:4;stroke-dasharray:none;stroke-opacity:1"
       id="path1189"
       d="m 117.58506,216.52047 c 6.03013,1.27493 12.0227,2.72104 17.98618,4.27569 15.7218,4.42586 29.93466,12.67555 44.01198,20.7356 5.80291,3.33996 11.5496,6.77763 17.163,10.42802 0.38671,0.3279 0.9979,0.47789 1.18249,0.97997 0,0 -2.37408,0.72199 -2.37408,0.72199 v 0 c 0.0309,0.0669 0.0701,0.13056 0.0926,0.20074 0.0237,0.0738 -0.11864,-0.10003 -0.18056,-0.14672 -0.31242,-0.23558 -0.51053,-0.37015 -0.85603,-0.61444 -5.47082,-3.7542 -11.13521,-7.21427 -16.85224,-10.57865 -14.038,-8.15538 -28.29308,-16.36775 -44.08376,-20.62883 -6.0228,-1.52191 -12.07181,-3.01047 -18.19217,-4.0849 0,0 2.1026,-1.28847 2.1026,-1.28847 z"
       inkscape:connector-curvature="0" />
    <ellipse
       style="opacity:1;fill:#800000;fill-opacity:1;fill-rule:nonzero;stroke:#ffffff;stroke-width:0;stroke-miterlimit:4;stroke-dasharray:none;stroke-opacity:1"
       id="path1191"
       cx="135.47182"
       cy="130.71094"
       rx="8.0662603"
       ry="5.7911611" />
    <ellipse
       style="opacity:1;fill:#800000;fill-opacity:1;fill-rule:nonzero;stroke:#ffffff;stroke-width:0;stroke-miterlimit:4;stroke-dasharray:none;stroke-opacity:1"
       id="path1193"
       cx="174.35533"
       cy="147.67078"
       rx="7.2389517"
       ry="4.5501981" />
    <path
       style="opacity:1;fill:#800000;fill-opacity:1;fill-rule:nonzero;stroke:#ffffff;stroke-width:0;stroke-miterlimit:4;stroke-dasharray:none;stroke-opacity:1"
       id="path1195"
       d="m 143.84867,130.58597 c -0.0416,3.47496 -0.84438,6.89148 -1.5521,10.27655 -0.22387,1.02668 -0.44637,2.05367 -0.67163,3.08005 -0.66681,3.0384 -1.29952,6.06884 -1.73768,9.15076 -0.34944,2.45787 -0.39848,3.27019 -0.62995,5.71186 -0.38326,3.7392 -0.004,7.49959 -0.18141,11.24098 -0.1246,1.69485 -0.59619,3.31932 -1.38553,4.81842 -0.0994,0.22492 -0.27062,0.40606 -0.39504,0.61471 0,0 -2.37067,0.72786 -2.37067,0.72786 v 0 c 0.20934,-0.0949 0.32138,-0.33002 0.449,-0.51693 0.83788,-1.45517 1.32774,-3.05575 1.4696,-4.73298 0.21674,-3.75251 -0.13961,-7.52995 0.25168,-11.28041 0.22997,-2.38889 0.29352,-3.32809 0.63653,-5.73022 0.44074,-3.08649 1.07144,-6.12158 1.73825,-9.16487 0.22445,-1.02439 0.44361,-2.04994 0.66541,-3.07491 0.67875,-3.35099 1.45402,-6.74077 1.43772,-10.1782 0,0 2.27582,-0.94267 2.27582,-0.94267 z"
       inkscape:connector-curvature="0" />
    <path
       style="opacity:1;fill:#800000;fill-opacity:1;fill-rule:nonzero;stroke:#ffffff;stroke-width:0;stroke-miterlimit:4;stroke-dasharray:none;stroke-opacity:1"
       id="path1197"
       d="m 181.82503,147.90337 c -0.58997,1.84369 -1.19516,3.68504 -1.81314,5.52065 -1.92929,5.81253 -3.58804,11.71297 -5.17723,17.62639 -1.54649,5.57937 -2.87862,11.21243 -4.05921,16.87949 -0.48172,2.21633 -0.77771,4.4645 -0.87882,6.72901 -0.0122,0.57275 -0.0331,1.14734 0.002,1.71981 0,0 -2.28367,0.96077 -2.28367,0.96077 v 0 c -0.0294,-0.58497 0.006,-1.17162 0.0204,-1.75636 0.11381,-2.28702 0.41998,-4.55775 0.93073,-6.79176 1.22882,-5.67468 2.58346,-11.32046 4.12696,-16.91856 1.56365,-5.90392 3.2451,-11.78063 5.08224,-17.60522 0.59847,-1.82927 1.19979,-3.65967 1.73581,-5.50731 0,0 2.31406,-0.85691 2.31406,-0.85691 z"
       inkscape:connector-curvature="0" />
  </g>
</svg>
